<?xml version="1.0" encoding="UTF-8" standalone="no"?>
<!DOCTYPE svg PUBLIC "-//W3C//DTD SVG 1.1//EN" "http://www.w3.org/Graphics/SVG/1.1/DTD/svg11.dtd">
<svg width="100%" height="100%" viewBox="0 0 700 443" version="1.1" xmlns="http://www.w3.org/2000/svg" xmlns:xlink="http://www.w3.org/1999/xlink" xml:space="preserve" xmlns:serif="http://www.serif.com/" style="fill-rule:evenodd;clip-rule:evenodd;stroke-linejoin:round;stroke-miterlimit:2;">
    <g transform="matrix(1,0,0,1,-340.512,-358.723)">
        <path d="M690.326,424.068C604.232,424.068 534.435,493.865 534.435,579.963C534.435,666.058 604.232,735.854 690.326,735.854C776.421,735.854 846.218,666.058 846.218,579.963C846.218,493.865 776.421,424.068 690.326,424.068ZM521.953,455.399C470.333,483.989 426.819,526.154 399.396,579.963C426.819,633.769 470.333,675.933 521.953,704.524C496.153,669.708 480.89,626.614 480.89,579.963C480.89,533.31 496.153,490.215 521.953,455.399ZM858.7,455.399C884.5,490.215 899.763,533.31 899.763,579.963C899.763,626.614 884.5,669.708 858.7,704.524C910.32,675.933 953.836,633.769 981.256,579.963C953.836,526.154 910.32,483.989 858.7,455.399ZM1040.14,579.963C986.885,709.228 850.367,801.2 690.326,801.2C530.286,801.2 393.768,709.228 340.512,579.963C393.768,450.693 530.286,358.723 690.326,358.723C850.367,358.723 986.885,450.693 1040.14,579.963Z"/>
    </g>
    <g transform="matrix(1,0,0,1,-340.512,-358.723)">
        <path d="M690.328,689.998C750.932,689.998 800.363,640.567 800.363,579.963C800.363,519.356 750.932,469.926 690.328,469.926C629.721,469.926 580.291,519.356 580.291,579.963C580.291,640.567 629.721,689.998 690.328,689.998Z"/>
    </g>
</svg>
