<?xml version="1.0" encoding="UTF-8" standalone="no"?>
<!DOCTYPE svg PUBLIC "-//W3C//DTD SVG 1.1//EN" "http://www.w3.org/Graphics/SVG/1.1/DTD/svg11.dtd">
<svg width="100%" height="100%" viewBox="0 0 644 948" version="1.1" xmlns="http://www.w3.org/2000/svg" xmlns:xlink="http://www.w3.org/1999/xlink" xml:space="preserve" xmlns:serif="http://www.serif.com/" style="fill-rule:evenodd;clip-rule:evenodd;stroke-linejoin:round;stroke-miterlimit:2;">
    <path d="M40.686,449.668L0,449.668L0,947.118L643.434,947.118L643.434,449.668L602.748,449.668L602.748,281.03C602.748,125.82 476.926,0 321.718,0L321.716,0C166.508,0 40.686,125.82 40.686,281.03L40.686,449.668ZM368.568,798.698L274.864,798.698L299.324,686.1C284.752,678.158 274.864,662.702 274.864,644.936C274.864,619.062 295.84,598.086 321.716,598.086C347.594,598.086 368.568,619.062 368.568,644.936C368.568,662.702 358.682,678.158 344.108,686.1L368.568,798.698ZM506.802,449.668L506.802,281.03C506.802,178.81 423.936,95.946 321.718,95.946L321.716,95.946C219.498,95.946 136.632,178.81 136.632,281.03L136.632,449.668L506.802,449.668Z"/>
</svg>
