<?xml version="1.0" encoding="UTF-8" standalone="no"?>
<!DOCTYPE svg PUBLIC "-//W3C//DTD SVG 1.1//EN" "http://www.w3.org/Graphics/SVG/1.1/DTD/svg11.dtd">
<svg width="100%" height="100%" viewBox="0 0 37 25" version="1.1" xmlns="http://www.w3.org/2000/svg" xmlns:xlink="http://www.w3.org/1999/xlink" xml:space="preserve" xmlns:serif="http://www.serif.com/" style="fill-rule:evenodd;clip-rule:evenodd;stroke-linejoin:round;stroke-miterlimit:2;">
    <g transform="matrix(1,0,0,1,-534.463,-55.225)">
        <path d="M536.191,55.225L552.484,68.869L568.778,55.225L536.191,55.225Z" style="fill-rule:nonzero;"/>
    </g>
    <g transform="matrix(1,0,0,1,-534.463,-55.225)">
        <path d="M553.268,71.394C553.262,71.398 553.254,71.4 553.248,71.405C553.149,71.485 553.04,71.545 552.924,71.59C552.899,71.6 552.875,71.607 552.85,71.615C552.731,71.652 552.611,71.677 552.488,71.677C552.488,71.677 552.486,71.678 552.485,71.678L552.484,71.678C552.484,71.678 552.482,71.677 552.481,71.677C552.358,71.677 552.238,71.652 552.121,71.615C552.095,71.607 552.07,71.6 552.045,71.59C551.93,71.545 551.821,71.485 551.722,71.405C551.716,71.4 551.708,71.398 551.702,71.394L534.463,56.957L534.463,79.6L570.508,79.6L570.508,56.957L553.268,71.394Z" style="fill-rule:nonzero;"/>
    </g>
</svg>
