<?xml version="1.0" encoding="UTF-8" standalone="no"?>
<!DOCTYPE svg PUBLIC "-//W3C//DTD SVG 1.1//EN" "http://www.w3.org/Graphics/SVG/1.1/DTD/svg11.dtd">
<svg width="100%" height="100%" viewBox="0 0 1241 1791" version="1.1" xmlns="http://www.w3.org/2000/svg" xmlns:xlink="http://www.w3.org/1999/xlink" xml:space="preserve" xmlns:serif="http://www.serif.com/" style="fill-rule:evenodd;clip-rule:evenodd;stroke-linejoin:round;stroke-miterlimit:2;">
    <g transform="matrix(4.16667,0,0,4.16667,-1046.26,-319.579)">
        <path d="M355.885,429.74C354.488,429.94 353.69,432.101 352.547,435.56C351.395,439.016 351.884,443.262 353.379,443.702C354.888,444.161 360.667,440.558 360.838,439.945C361.034,439.35 360.158,438.455 360.64,436.187C361.118,433.919 361.503,432.728 361.051,431.835C360.597,430.953 357.277,429.547 355.885,429.74Z" style="fill-rule:nonzero;"/>
    </g>
    <g transform="matrix(4.16667,0,0,4.16667,-1046.26,-319.579)">
        <path d="M367.395,417.742C367.333,417.751 362.682,407.909 360.463,408.428C358.183,408.959 357.012,417.623 357.437,421.729C357.858,425.834 357.889,428.901 360.077,429.428C362.282,429.963 366.52,427.213 366.507,427.206C366.505,427.206 366.159,424.229 366.394,422.299C366.627,420.369 367.396,417.743 367.395,417.742Z" style="fill-rule:nonzero;"/>
    </g>
    <g transform="matrix(4.16667,0,0,4.16667,-1046.26,-319.579)">
        <path d="M351.21,409.738C349.878,410.263 349.422,416.878 350.25,419.441C351.073,422.002 351.055,424.85 352.616,425.441C354.178,426.032 355.878,425.751 355.877,425.751C355.875,425.752 355.278,422.815 355.364,420.859C355.446,418.904 356.282,415.867 356.28,415.867C356.247,415.874 352.508,409.224 351.21,409.738Z" style="fill-rule:nonzero;"/>
    </g>
    <g transform="matrix(4.16667,0,0,4.16667,-1046.26,-319.579)">
        <path d="M363.858,431.269C361.602,432.019 362.663,436.09 362.271,440.183C361.859,444.272 362.287,450.442 364.566,450.706C366.861,450.98 371.601,445.458 372.439,443.672C373.309,441.894 373.723,435.842 373.041,434.647C372.33,433.469 366.091,430.54 363.858,431.269Z" style="fill-rule:nonzero;"/>
    </g>
    <g transform="matrix(4.16667,0,0,4.16667,-1046.26,-319.579)">
        <path d="M337.015,431.142C335.697,434.43 337.85,436.321 339.484,435.919C341.106,435.519 340.894,433.115 342.928,430.223C343.822,428.957 346.678,427.236 346.623,426.594C346.565,425.959 344.442,424.299 342.875,424.188C341.314,424.082 338.332,427.854 337.015,431.142Z" style="fill-rule:nonzero;"/>
    </g>
    <g transform="matrix(4.16667,0,0,4.16667,-1046.26,-319.579)">
        <path d="M453.834,409.54C453.15,409.459 452.131,415.271 451.336,417.944C451.348,417.944 450.164,423.648 450.438,423.926C450.723,424.205 452.486,424.104 453.705,423.649C454.928,423.195 455.012,422.404 454.98,419.88C454.963,417.354 454.535,409.616 453.834,409.54Z" style="fill-rule:nonzero;"/>
    </g>
    <g transform="matrix(4.16667,0,0,4.16667,-1046.26,-319.579)">
        <path d="M346.166,409.54C345.465,409.616 345.039,417.354 345.02,419.88C344.989,422.404 345.073,423.195 346.295,423.649C347.515,424.104 349.277,424.205 349.563,423.926C349.837,423.648 348.652,417.944 348.665,417.944C347.871,415.271 346.851,409.459 346.166,409.54Z" style="fill-rule:nonzero;"/>
    </g>
    <g transform="matrix(4.16667,0,0,4.16667,-1046.26,-319.579)">
        <path d="M343.074,433.027C341.717,436.948 340.906,440.979 342.167,441.329C343.426,441.678 345.226,439.771 347.128,439.065C348.596,438.525 350.141,438.756 350.71,438.173C351.276,437.59 351.05,434.739 351.821,433.254C352.592,431.769 354.138,429.989 353.867,429.529C353.592,429.086 347.996,427.807 347.999,427.79C346.23,428.095 344.432,429.105 343.074,433.027Z" style="fill-rule:nonzero;"/>
    </g>
    <g transform="matrix(4.16667,0,0,4.16667,-1046.26,-319.579)">
        <path d="M398.598,422.475C397.704,414.697 394.421,411.289 390.794,411.307C387.161,411.324 384.335,413.821 382.713,418.047C381.095,422.271 381.154,431.151 382.945,433.206C384.72,435.316 394.999,434.816 397.593,433.913C400.208,433.064 399.471,430.249 398.598,422.475Z" style="fill-rule:nonzero;"/>
    </g>
    <g transform="matrix(4.16667,0,0,4.16667,-1046.26,-319.579)">
        <path d="M343.037,420.362C343.897,420.206 344.276,415.985 344.184,413.653C344.083,411.316 342.659,408.916 342.661,408.916C341.574,409.234 340.462,413.189 340.69,415.892C340.918,418.597 342.176,420.518 343.037,420.362Z" style="fill-rule:nonzero;"/>
    </g>
    <g transform="matrix(4.16667,0,0,4.16667,-1046.26,-319.579)">
        <path d="M478.629,381.998C473.52,382.326 468,381.373 467.244,382.127C465.674,383.698 468.814,391.026 467.244,397.831C466.107,402.766 464.131,407.693 459.941,411.431C460.361,413.031 460.521,414.81 460.422,415.986C460.195,418.69 458.877,421.487 457.063,421.487C456.963,421.487 456.861,421.479 456.766,421.46C456.514,421.415 456.297,421.291 456.1,421.112C456.082,422.023 455.986,422.803 455.652,423.427C456.143,423.231 456.625,423.103 457.045,423.072L457.189,423.067C459.613,423.067 462.768,427.597 464.023,430.727C465,433.162 464.303,434.771 463.801,435.515C463.133,436.5 462.072,437.091 460.965,437.091C460.721,437.091 460.482,437.061 460.25,437.004C459.77,436.885 459.398,436.661 459.09,436.378C459.588,438.456 459.799,440.422 459.242,441.482C458.932,442.077 458.467,442.313 458.133,442.406C457.934,442.462 457.725,442.488 457.512,442.488C456.49,442.488 455.51,441.866 454.475,441.207C453.814,440.788 453.131,440.354 452.484,440.114C451.939,439.913 451.352,439.838 450.781,439.768C450.217,439.695 449.674,439.625 449.199,439.426C449.219,440.977 448.975,442.414 448.465,443.388C447.988,444.303 447.371,444.646 446.938,444.774C446.752,444.83 446.539,444.86 446.309,444.86C444.711,444.859 440.684,442.781 438.922,441.261C439.063,444.158 439.064,451.411 435.563,451.815C435.469,451.827 435.367,451.833 435.264,451.833C432.078,451.833 427.297,445.738 426.549,444.146C426.482,444.012 426.42,443.854 426.359,443.682C426.025,446.5 425.449,449.106 424.758,450.241C423.623,452.148 422.148,452.551 421.111,452.551L421.109,452.551C419.74,452.551 418.271,451.863 416.742,450.509C415.248,449.192 414.01,445.496 413.41,442.05C412.773,445.251 411.502,448.684 410.479,449.913L410.342,450.083C409.254,451.422 408.395,452.479 406.834,452.479C406.082,452.479 405.25,452.233 404.059,451.657C401.193,450.277 400.34,443.131 400.198,441.714C400.17,441.431 400.147,441.166 400.129,440.909L400,440.911L399.873,440.909C399.853,441.171 399.83,441.439 399.801,441.727C399.659,443.144 398.805,450.28 395.94,451.658C394.75,452.233 393.92,452.479 393.166,452.479C391.606,452.479 390.747,451.422 389.658,450.082L389.514,449.903C388.494,448.681 387.226,445.248 386.587,442.047C385.99,445.496 384.751,449.193 383.255,450.511C381.729,451.864 380.26,452.551 378.89,452.551C377.852,452.551 376.376,452.148 375.238,450.23C374.547,449.1 373.974,446.494 373.641,443.677C373.577,443.856 373.512,444.022 373.443,444.161C372.704,445.738 367.922,451.833 364.737,451.833C364.633,451.833 364.532,451.827 364.434,451.815C360.945,451.413 360.938,444.191 361.079,441.277C359.326,442.777 355.292,444.86 353.692,444.86C353.462,444.86 353.248,444.83 353.055,444.771C352.63,444.646 352.013,444.303 351.535,443.389C351.027,442.415 350.783,440.978 350.8,439.425C350.328,439.625 349.784,439.695 349.22,439.767C348.65,439.838 348.063,439.913 347.514,440.114C346.868,440.354 346.187,440.788 345.527,441.206C344.491,441.866 343.511,442.488 342.488,442.488C342.275,442.488 342.067,442.462 341.869,442.406C341.534,442.313 341.071,442.077 340.758,441.482C340.202,440.422 340.414,438.457 340.91,436.379C340.603,436.662 340.233,436.885 339.751,437.003C339.52,437.061 339.28,437.091 339.037,437.091C337.927,437.091 336.866,436.5 336.199,435.515C335.697,434.772 335,433.163 335.978,430.727C337.232,427.597 340.387,423.067 342.811,423.067L342.95,423.072C343.373,423.103 343.856,423.231 344.349,423.428C344.015,422.804 343.92,422.024 343.901,421.113C343.706,421.292 343.486,421.415 343.235,421.46C343.138,421.479 343.038,421.487 342.937,421.487C341.124,421.487 339.805,418.69 339.577,415.986C339.478,414.81 339.639,413.031 340.058,411.431C335.871,407.693 333.894,402.766 332.756,397.831C331.186,391.026 334.326,383.698 332.756,382.127C332,381.373 326.48,382.326 321.372,381.998C315.865,381.642 310.772,380.035 310.772,380.035C310.772,380.035 304.492,406.729 307.632,415.104C310.772,423.479 318.624,431.854 320.194,439.181C321.764,446.508 341.654,493.615 365.207,499.896C377.15,503.08 389.17,506.305 400,506.305C410.83,506.305 422.852,503.08 434.793,499.896C458.348,493.615 478.236,446.508 479.807,439.181C481.375,431.854 489.227,423.479 492.367,415.104C495.508,406.729 489.227,380.035 489.227,380.035C489.227,380.035 484.137,381.642 478.629,381.998Z" style="fill-rule:nonzero;"/>
    </g>
    <g transform="matrix(4.16667,0,0,4.16667,-1046.26,-319.579)">
        <path d="M388.178,436.165C385.852,436.991 388.624,447.091 390.381,449.197C392.094,451.302 392.574,452.042 395.456,450.651C398.366,449.251 399.639,437.326 398.279,436.295C398.27,436.323 390.477,435.37 388.178,436.165Z" style="fill-rule:nonzero;"/>
    </g>
    <g transform="matrix(4.16667,0,0,4.16667,-1046.26,-319.579)">
        <path d="M380.916,419.659C380.864,419.669 375.978,410.965 373.201,411.751C370.401,412.557 367.002,423.132 367.527,425.477C368.069,427.82 369.935,430.204 372.019,430.731C374.097,431.279 379.655,431.168 379.653,431.154C379.65,431.154 379.144,428.411 379.49,425.296C379.755,422.915 380.92,419.66 380.916,419.659Z" style="fill-rule:nonzero;"/>
    </g>
    <g transform="matrix(4.16667,0,0,4.16667,-1046.26,-319.579)">
        <path d="M375.36,434.129C373.569,435.005 374.681,447.173 376.198,449.66C377.675,452.146 380.007,451.897 382.517,449.673C385.044,447.446 386.525,437.428 385.569,436.048C384.599,434.693 377.13,433.282 375.36,434.129Z" style="fill-rule:nonzero;"/>
    </g>
    <g transform="matrix(4.16667,0,0,4.16667,-1046.26,-319.579)">
        <path d="M448.791,409.738C447.492,409.224 443.754,415.874 443.723,415.867C443.721,415.867 444.555,418.904 444.639,420.858C444.723,422.815 444.125,425.751 444.125,425.751C444.123,425.752 445.822,426.032 447.385,425.441C448.945,424.85 448.928,422.002 449.748,419.441C450.576,416.878 450.125,410.263 448.791,409.738Z" style="fill-rule:nonzero;"/>
    </g>
    <g transform="matrix(4.16667,0,0,4.16667,-1046.26,-319.579)">
        <path d="M409.205,411.307C405.58,411.289 402.295,414.697 401.402,422.475C400.529,430.249 399.79,433.064 402.408,433.913C405.002,434.816 415.281,435.316 417.055,433.206C418.846,431.151 418.906,422.271 417.287,418.047C415.666,413.821 412.838,411.324 409.205,411.307Z" style="fill-rule:nonzero;"/>
    </g>
    <g transform="matrix(4.16667,0,0,4.16667,-1046.26,-319.579)">
        <path d="M417.482,449.673C419.994,451.896 422.324,452.146 423.803,449.66C425.32,447.173 426.432,435.005 424.641,434.129C422.869,433.282 415.402,434.693 414.432,436.048C413.475,437.428 414.957,447.446 417.482,449.673Z" style="fill-rule:nonzero;"/>
    </g>
    <g transform="matrix(4.16667,0,0,4.16667,-1046.26,-319.579)">
        <path d="M401.723,436.295C400.361,437.325 401.635,449.25 404.545,450.651C407.426,452.042 407.908,451.302 409.621,449.197C411.375,447.091 414.148,436.992 411.822,436.165C409.523,435.37 401.73,436.323 401.723,436.295Z" style="fill-rule:nonzero;"/>
    </g>
    <g transform="matrix(4.16667,0,0,4.16667,-1046.26,-319.579)">
        <path d="M426.801,411.751C424.025,410.964 419.137,419.668 419.084,419.659C419.08,419.66 420.244,422.915 420.512,425.296C420.857,428.412 420.35,431.154 420.348,431.154C420.346,431.168 425.904,431.279 427.984,430.731C430.064,430.204 431.932,427.82 432.475,425.476C432.998,423.132 429.602,412.557 426.801,411.751Z" style="fill-rule:nonzero;"/>
    </g>
    <g transform="matrix(4.16667,0,0,4.16667,-1046.26,-319.579)">
        <path d="M489.23,324.105C479.965,327.008 445.686,327.492 435.958,319.266C426.23,311.041 416.039,300.881 418.355,291.688C420.671,282.494 426.23,262.172 446.612,256.85C466.994,251.527 472.09,267.979 483.207,267.979C494.326,267.979 504.98,281.042 504.98,290.719C504.98,300.396 498.494,321.202 489.23,324.105ZM407.578,378.765C402.674,376.312 400.344,367.741 400,366.373C399.656,367.741 397.327,376.312 392.422,378.765C387.086,381.433 378.319,376.096 378.319,369.998C378.319,363.899 383.274,363.137 385.18,353.607C387.086,344.079 388.991,333.025 388.229,328.832C387.467,324.638 391.278,319.684 394.328,319.302C397.146,318.95 399.638,324.456 400,325.294C400.362,324.456 402.855,318.95 405.672,319.302C408.723,319.684 412.533,324.638 411.771,328.832C411.008,333.025 412.914,344.079 414.82,353.607C416.727,363.137 421.682,363.899 421.682,369.998C421.682,376.096 412.914,381.433 407.578,378.765ZM364.043,319.266C354.315,327.492 320.036,327.008 310.771,324.105C301.506,321.202 295.021,300.396 295.021,290.719C295.021,281.042 305.675,267.979 316.793,267.979C327.911,267.979 333.007,251.527 353.389,256.85C373.771,262.172 379.33,282.494 381.646,291.688C383.962,300.881 373.771,311.041 364.043,319.266ZM526.262,293.854C526.266,295.158 526.313,296.419 526.432,297.608C526.484,298.205 526.58,298.775 526.701,299.314C526.76,299.587 526.85,299.834 526.926,300.086C527.023,300.312 527.121,300.573 527.221,300.716C527.264,300.801 527.299,300.889 527.412,301.003L527.555,301.164L527.621,301.239L527.648,301.262C527.852,301.423 528.049,301.582 528.246,301.739L528.467,301.886C530.43,301 535.539,298.37 536.48,294.601C537.652,289.914 537.652,271.169 538.822,265.312C539.994,259.455 547.611,243.64 548.781,217.281C549.953,190.921 542.338,151.676 523.008,133.517C503.75,115.427 462.074,76.699 400,76.699C337.927,76.699 296.25,115.427 276.993,133.517C257.663,151.676 250.048,190.921 251.219,217.281C252.39,243.64 260.006,259.455 261.177,265.312C262.349,271.169 262.349,289.914 263.52,294.601C264.462,298.37 269.57,301 271.535,301.886L271.756,301.739C271.952,301.582 272.15,301.423 272.351,301.262L272.38,301.239L272.447,301.164L272.588,301.003C272.703,300.889 272.735,300.801 272.781,300.716C272.88,300.573 272.976,300.312 273.075,300.086C273.151,299.834 273.242,299.587 273.299,299.314C273.422,298.775 273.516,298.205 273.569,297.608C273.688,296.419 273.735,295.158 273.739,293.854C273.751,291.245 273.617,288.461 273.594,285.566C273.565,282.67 273.552,279.652 273.852,276.569C274.166,273.497 274.694,270.31 276.094,267.288C277.468,264.497 278.898,261.784 280.2,259.085C280.845,257.736 281.458,256.401 281.942,255.081C282.416,253.759 282.705,252.454 282.731,251.152C282.728,250.825 282.723,250.5 282.7,250.173L282.651,249.683L282.632,249.483L282.584,249.221C282.511,248.851 282.46,248.672 282.351,248.325C282.261,248.014 282.147,247.699 282.039,247.385C281.58,246.129 281.038,244.896 280.5,243.703C279.407,241.32 278.325,239.066 277.345,236.976C275.368,232.803 273.813,229.256 272.975,226.672C272.545,225.385 272.316,224.333 272.244,223.608C272.214,223.245 272.2,222.964 272.23,222.778C272.252,222.593 272.263,222.497 272.263,222.497C272.263,222.497 272.263,222.593 272.265,222.78C272.256,222.964 272.304,223.239 272.376,223.586C272.525,224.287 272.893,225.274 273.43,226.497C274.51,228.946 276.368,232.3 278.599,236.335C279.716,238.354 280.941,240.533 282.148,242.909C282.753,244.098 283.365,245.325 283.921,246.653C284.056,246.989 284.195,247.324 284.317,247.682C284.434,247.997 284.576,248.498 284.645,248.821C284.806,249.614 284.866,250.353 284.89,251.152C284.908,252.738 284.588,254.339 284.102,255.82C283.615,257.306 282.995,258.715 282.339,260.1C281.035,262.864 279.625,265.609 278.304,268.346C277.08,270.911 276.524,273.881 276.205,276.809C275.909,279.753 275.782,282.699 275.747,285.569C275.712,288.439 275.695,291.231 275.563,293.906C275.49,295.243 275.4,296.552 275.188,297.829C275.088,298.466 274.944,299.097 274.759,299.717C274.554,300.349 274.355,300.922 273.907,301.55C273.797,301.708 273.682,301.867 273.585,301.948L273.434,302.099L273.359,302.174L273.34,302.193C273.236,302.291 273.298,302.229 273.269,302.256L273.221,302.289C272.969,302.465 272.72,302.641 272.474,302.814C272.225,302.978 271.96,303.095 271.709,303.235C271.459,303.379 271.2,303.486 270.943,303.583L270.836,303.625C268.661,305.657 264.483,309.349 261.177,311.001C256.491,313.344 253.563,327.402 257.663,330.331C261.763,333.26 262.349,354.933 276.993,367.821C291.637,380.707 314.481,376.607 321.51,376.02C328.54,375.434 334.983,377.778 337.912,381.878C340.841,385.98 333.226,402.381 339.669,409.996C339.85,410.209 340.057,410.432 340.283,410.66C340.749,409.255 341.316,407.922 342.347,407.844C343.378,407.766 344.362,409.81 344.617,410.5C344.91,408.995 345.313,408.509 346.045,408.429L346.181,408.421C347.413,408.421 347.805,409.65 348.787,413.808C348.982,411.405 349.589,409.177 350.8,408.699C350.977,408.629 351.167,408.593 351.364,408.593C352.435,408.593 353.768,409.605 356.684,414.384C357.21,411.009 358.277,407.788 360.209,407.339C360.348,407.307 360.493,407.291 360.638,407.291C362.007,407.291 363.859,408.432 368.114,416.713C368.196,416.874 368.255,416.989 368.297,417.07C369.502,413.981 371.151,411.179 372.891,410.677C373.113,410.613 373.34,410.583 373.572,410.583C374.877,410.583 377.107,411.404 381.424,418.363C381.502,418.114 381.583,417.873 381.67,417.647C383.509,412.857 386.748,410.209 390.788,410.188C395.512,410.188 398.834,414.733 399.707,422.347C399.81,423.251 399.908,424.076 400,424.848C400.092,424.076 400.19,423.251 400.293,422.35C401.166,414.733 404.488,410.188 409.18,410.188C413.254,410.209 416.492,412.857 418.33,417.646C418.416,417.872 418.498,418.114 418.576,418.363C422.893,411.404 425.123,410.583 426.428,410.583C426.66,410.583 426.889,410.613 427.105,410.676C428.848,411.178 430.498,413.98 431.703,417.068C431.746,416.988 431.803,416.875 431.885,416.717C436.139,408.433 437.992,407.291 439.361,407.291C439.506,407.291 439.652,407.308 439.791,407.341C441.721,407.788 442.789,411.009 443.316,414.386C446.232,409.605 447.564,408.593 448.635,408.593C448.832,408.593 449.023,408.629 449.203,408.7C450.412,409.176 451.02,411.406 451.215,413.81C452.195,409.651 452.588,408.421 453.82,408.421L453.967,408.43C454.691,408.509 455.092,408.995 455.385,410.501C455.635,409.827 456.615,407.794 457.65,407.844C458.684,407.894 459.252,409.255 459.719,410.66C459.943,410.433 460.15,410.209 460.332,409.996C466.773,402.381 459.16,385.98 462.088,381.878C465.018,377.778 471.461,375.434 478.49,376.02C485.52,376.607 508.363,380.707 523.008,367.821C537.652,354.933 538.238,333.26 542.338,330.331C546.439,327.402 543.51,313.344 538.822,311.001C535.518,309.349 531.34,305.657 529.164,303.625L529.057,303.583C528.801,303.486 528.541,303.379 528.291,303.235C528.041,303.095 527.775,302.978 527.527,302.814C527.281,302.641 527.031,302.465 526.779,302.289L526.732,302.256C526.703,302.229 526.764,302.291 526.66,302.193L526.566,302.099L526.416,301.948C526.318,301.867 526.203,301.708 526.094,301.55C525.646,300.922 525.447,300.349 525.24,299.717C525.057,299.097 524.912,298.466 524.813,297.829C524.602,296.552 524.51,295.243 524.439,293.906C524.305,291.231 524.287,288.439 524.254,285.569C524.219,282.699 524.091,279.753 523.797,276.809C523.474,273.881 522.919,270.911 521.695,268.346C520.375,265.609 518.965,262.864 517.659,260.1C517.005,258.715 516.387,257.306 515.898,255.82C515.412,254.339 515.091,252.738 515.109,251.152C515.135,250.353 515.195,249.614 515.357,248.821C515.426,248.498 515.565,247.997 515.684,247.682C515.805,247.324 515.945,246.989 516.078,246.653C516.635,245.325 517.248,244.098 517.852,242.909C519.06,240.533 520.284,238.354 521.401,236.335C523.63,232.3 525.49,228.946 526.57,226.497C527.107,225.274 527.477,224.287 527.625,223.586C527.695,223.239 527.744,222.964 527.736,222.78L527.736,222.497C527.736,222.497 527.75,222.593 527.77,222.778C527.801,222.964 527.785,223.245 527.756,223.608C527.684,224.333 527.455,225.385 527.025,226.672C526.188,229.256 524.633,232.803 522.654,236.976C521.676,239.066 520.594,241.32 519.5,243.703C518.963,244.896 518.419,246.129 517.961,247.385C517.854,247.699 517.737,248.014 517.65,248.325C517.539,248.672 517.487,248.851 517.416,249.221L517.367,249.483L517.349,249.683L517.299,250.173C517.276,250.5 517.273,250.825 517.27,251.152C517.294,252.454 517.584,253.759 518.059,255.081C518.543,256.401 519.154,257.736 519.801,259.085C521.102,261.784 522.533,264.497 523.906,267.288C525.305,270.31 525.836,273.497 526.148,276.569C526.447,279.652 526.436,282.67 526.406,285.566C526.383,288.461 526.248,291.245 526.262,293.854Z" style="fill-rule:nonzero;"/>
    </g>
    <g transform="matrix(4.16667,0,0,4.16667,-1046.26,-319.579)">
        <path d="M456.963,420.362C457.826,420.518 459.082,418.597 459.311,415.892C459.539,413.189 458.428,409.234 457.338,408.916C457.34,408.917 455.918,411.316 455.818,413.653C455.723,415.985 456.105,420.206 456.963,420.362Z" style="fill-rule:nonzero;"/>
    </g>
    <g transform="matrix(4.16667,0,0,4.16667,-1046.26,-319.579)">
        <path d="M453.379,426.593C453.322,427.236 456.176,428.957 457.074,430.223C459.107,433.115 458.896,435.518 460.518,435.919C462.15,436.321 464.303,434.43 462.984,431.142C461.668,427.854 458.686,424.082 457.125,424.188C455.559,424.299 453.436,425.959 453.379,426.593Z" style="fill-rule:nonzero;"/>
    </g>
    <g transform="matrix(4.16667,0,0,4.16667,-1046.26,-319.579)">
        <path d="M448.18,433.254C448.949,434.739 448.725,437.59 449.291,438.173C449.859,438.756 451.404,438.525 452.873,439.065C454.773,439.771 456.576,441.678 457.834,441.329C459.094,440.979 458.283,436.948 456.928,433.027C455.57,429.105 453.771,428.094 452.002,427.79C452.006,427.806 446.406,429.086 446.135,429.529C445.863,429.989 447.41,431.769 448.18,433.254Z" style="fill-rule:nonzero;"/>
    </g>
    <g transform="matrix(4.16667,0,0,4.16667,-1046.26,-319.579)">
        <path d="M438.947,431.836C438.498,432.728 438.881,433.919 439.361,436.187C439.842,438.455 438.967,439.35 439.162,439.945C439.336,440.558 445.111,444.161 446.623,443.702C448.117,443.262 448.607,439.016 447.453,435.56C446.313,432.101 445.512,429.941 444.115,429.74C442.723,429.548 439.404,430.953 438.947,431.836Z" style="fill-rule:nonzero;"/>
    </g>
    <g transform="matrix(4.16667,0,0,4.16667,-1046.26,-319.579)">
        <path d="M426.963,434.647C426.277,435.842 426.693,441.893 427.561,443.672C428.4,445.459 433.141,450.98 435.434,450.706C437.715,450.442 438.141,444.272 437.729,440.183C437.338,436.09 438.4,432.019 436.145,431.269C433.91,430.54 427.672,433.469 426.963,434.647Z" style="fill-rule:nonzero;"/>
    </g>
    <g transform="matrix(4.16667,0,0,4.16667,-1046.26,-319.579)">
        <path d="M439.537,408.429C437.318,407.908 432.666,417.751 432.605,417.742C432.604,417.742 433.373,420.369 433.607,422.299C433.844,424.229 433.496,427.206 433.494,427.206C433.48,427.213 437.719,429.962 439.926,429.428C442.113,428.901 442.141,425.834 442.564,421.729C442.988,417.623 441.818,408.958 439.537,408.429Z" style="fill-rule:nonzero;"/>
    </g>
</svg>
