<?xml version="1.0" encoding="UTF-8" standalone="no"?>
<!DOCTYPE svg PUBLIC "-//W3C//DTD SVG 1.1//EN" "http://www.w3.org/Graphics/SVG/1.1/DTD/svg11.dtd">
<svg width="100%" height="100%" viewBox="0 0 118 105" version="1.1" xmlns="http://www.w3.org/2000/svg" xmlns:xlink="http://www.w3.org/1999/xlink" xml:space="preserve" xmlns:serif="http://www.serif.com/" style="fill-rule:evenodd;clip-rule:evenodd;stroke-linejoin:round;stroke-miterlimit:2;">
    <g transform="matrix(1,0,0,1,-0.8175,-0.684998)">
        <path d="M50.836,5.685C52.623,2.592 55.924,0.685 59.497,0.685C63.069,0.685 66.371,2.592 68.157,5.685L116.837,90.001C118.623,93.095 118.623,96.907 116.837,100.001C115.05,103.095 111.749,105 108.176,105L10.817,105C7.245,105 3.943,103.095 2.157,100.001C0.371,96.907 0.371,93.095 2.157,90.001L50.836,5.685Z" style="fill-rule:nonzero;"/>
    </g>
    <g transform="matrix(1,0,0,1,-0.8175,-0.684998)">
        <path d="M10.817,100.001C9.014,100.001 7.396,99.066 6.492,97.499C5.587,95.932 5.585,94.064 6.487,92.5L55.167,8.185C56.068,6.623 57.687,5.691 59.497,5.691C61.307,5.691 62.925,6.623 63.827,8.186L112.506,92.501C113.409,94.063 113.406,95.932 112.501,97.499C111.597,99.066 109.98,100.001 108.177,100.001L10.817,100.001Z" style="fill-rule:nonzero;"/>
    </g>
    <g transform="matrix(1,0,0,1,-0.8175,-0.684998)">
        <path d="M10.818,96.001C10.299,96.001 10.04,95.649 9.953,95.497C9.845,95.311 9.702,94.934 9.953,94.5L58.632,10.185C58.891,9.736 59.324,9.688 59.498,9.688C59.672,9.688 60.105,9.736 60.364,10.184L109.044,94.501C109.303,94.95 109.128,95.349 109.041,95.5C108.955,95.65 108.696,96.001 108.178,96.001L10.818,96.001Z" style="fill-rule:nonzero;"/>
    </g>
    <g transform="matrix(1,0,0,1,-0.8175,-0.684998)">
        <path d="M59.497,30.001C54.561,30.001 52.038,33.626 52.565,38.065L52.559,38.065L56.523,71.457L56.532,71.457C56.705,72.896 57.694,74.001 59.497,74.001C61.299,74.001 62.289,72.896 62.461,71.457L62.47,71.457L66.435,38.065L66.428,38.065C66.954,33.639 64.45,30.001 59.497,30.001ZM64.497,84.001C64.497,86.762 62.813,89.001 59.497,89.001C56.18,89.001 54.497,86.762 54.497,84.001C54.497,81.24 56.18,79.001 59.497,79.001C62.813,79.001 64.497,81.24 64.497,84.001Z" style="fill-rule:nonzero;"/>
    </g>
</svg>
